<svg width="174" height="40" viewBox="0 0 174 40" fill="none" xmlns="http://www.w3.org/2000/svg">
<path d="M54.2344 4.19092H66.6791V7.49034H58.8425V10.0687H66.1663V13.3805H58.8425V18.5037H54.2344V4.19092Z" fill="#252525"/>
<path d="M81.1008 12.8097H73.4758V15.199H82.0013L81.4674 18.5037H68.9028V4.19092H81.5044V7.5027H73.474V9.49791H81.0991V12.8097H81.1008Z" fill="#252525"/>
<path d="M88.7874 13.2391V18.5037H84.2339V4.19092H92.8634C96.409 4.19092 98.2628 5.92987 98.2628 8.29972C98.2628 10.1429 97.1967 11.2439 95.801 11.7281C96.5711 12.0586 97.8839 12.7461 97.8839 15.1725V15.9483C97.8839 16.7612 97.8839 17.8039 98.0813 18.5037H93.4643C93.2282 17.9011 93.1736 17.0228 93.1736 15.5418V15.0594C93.1736 13.7286 92.7489 13.2391 90.9532 13.2391H88.7874ZM88.7874 10.2666H91.6263C92.8899 10.2666 93.5965 9.80364 93.5965 8.76981C93.5965 7.81728 92.948 7.27827 91.6263 7.27827H88.7892V10.2666H88.7874Z" fill="#252525"/>
<path d="M115.476 18.5037H112.286C112.184 18.1979 112.082 17.6907 112.015 17.203C111.1 18.2227 109.895 18.8306 107.273 18.8306C102.563 18.8306 99.9756 15.6602 99.9756 11.4789C99.9756 7.29767 102.552 3.86572 108.168 3.86572C112.7 3.86572 115.079 6.16489 115.488 8.57008H110.84C110.623 7.90914 110.008 6.93009 108.161 6.93009C105.738 6.93009 104.866 8.91645 104.866 11.2386C104.866 13.7675 105.856 15.7026 108.251 15.7026C110.279 15.7026 111.005 14.5451 111.005 13.437V13.2903H108.214V10.1659H115.478V18.5054L115.476 18.5037Z" fill="#252525"/>
<path d="M122.589 15.8352L121.686 18.5037H117.034L122.432 4.19092H128.478L134.23 18.5037H129.246L128.277 15.8352H122.589ZM127.199 12.5234C126.268 9.94678 125.731 8.31916 125.371 7.12098H125.301C124.991 8.30503 124.358 10.3356 123.6 12.5234H127.199Z" fill="#252525"/>
<path d="M135.757 18.5037V4.19092H141.162C144.323 9.31765 145.391 11.1768 146.311 13.02H146.387C146.258 11.6734 146.265 9.08614 146.265 6.71805V4.19269H150.442V18.5055H145.335C144.223 16.5173 140.714 10.4239 139.867 8.68145H139.798C139.934 10.3179 139.941 12.2159 139.941 15.024V18.5055H135.757V18.5037Z" fill="#252525"/>
<path d="M157.628 15.8352L156.726 18.5037H152.074L157.471 4.19092H163.517L169.269 18.5037H164.286L163.317 15.8352H157.628ZM162.238 12.5234C161.308 9.94678 160.77 8.31916 160.411 7.12098H160.34C160.03 8.30503 159.397 10.3356 158.64 12.5234H162.238Z" fill="#252525"/>
<path d="M67.6428 31.8816C67.6428 29.6107 67.6851 26.8609 67.7873 25.182H67.745C67.056 27.9512 66.1449 31.6465 64.7211 36.7061H60.9094C59.7869 32 58.8635 28.0467 58.1621 25.1537H58.1269C58.215 26.822 58.3771 29.5842 58.3771 32.0406V36.7061H54.2324V22.3933H60.8742C61.7941 25.6167 62.6981 29.1335 63.1034 31.544H63.1316C63.6779 29.0116 64.5907 25.668 65.5475 22.3933H72.1664V36.7061H67.6428V31.8816Z" fill="#252525"/>
<path d="M87.7161 31.0121H80.091V33.4014H88.6166L88.0826 36.7061H75.5181V22.3933H88.1196V25.7051H80.0892V27.7003H87.7143V31.0121H87.7161Z" fill="#252525"/>
<path d="M90.8369 22.3934H98.0673C103.216 22.3934 105.826 25.5549 105.826 29.3191C105.826 33.7407 102.601 36.7044 98.0214 36.7044H90.8369V22.3916V22.3934ZM95.4803 33.488H97.484C99.7836 33.488 100.931 32.099 100.931 29.4287C100.931 27.2338 100.02 25.6239 97.4892 25.5974H95.4803V33.488Z" fill="#252525"/>
<path d="M112.99 22.3933V36.7061H108.346V22.3933H112.99Z" fill="#252525"/>
<path d="M120.174 34.0376L119.272 36.7061H114.62L120.017 22.3933H126.063L131.815 36.7061H126.832L125.863 34.0376H120.174ZM124.784 30.7258C123.854 28.1492 123.316 26.5216 122.957 25.3234H122.886C122.576 26.5074 121.943 28.538 121.186 30.7258H124.784Z" fill="#252525"/>
<path d="M44.1915 4.13599H35.1021V36.653H44.1915V4.13599Z" fill="#FF474F"/>
<path d="M31.3522 15.7891H22.2627V24.9044H31.3522V15.7891Z" fill="#FF474F"/>
<path d="M22.2625 4.13605V13.2514H15.797V36.653H6.70752V13.2514C6.70752 12.8025 6.741 12.3607 6.80267 11.9295C7.44059 7.52029 11.2258 4.13428 15.797 4.13428H22.2625V4.13605Z" fill="#FF474F"/>
</svg>
