<svg width="174" height="40" viewBox="0 0 174 40" fill="none" xmlns="http://www.w3.org/2000/svg">
<path d="M54.2344 4.19092H66.6791V7.49034H58.8425V10.0687H66.1663V13.3805H58.8425V18.5037H54.2344V4.19092Z" fill="white"/>
<path d="M81.1003 12.8097H73.4753V15.199H82.0008L81.4669 18.5037H68.9023V4.19092H81.5039V7.5027H73.4735V9.49791H81.0986V12.8097H81.1003Z" fill="white"/>
<path d="M88.7879 13.2391V18.5037H84.2344V4.19092H92.8639C96.4095 4.19092 98.2633 5.92987 98.2633 8.29972C98.2633 10.1429 97.1972 11.2439 95.8015 11.7281C96.5716 12.0586 97.8844 12.7461 97.8844 15.1725V15.9483C97.8844 16.7612 97.8844 17.8039 98.0818 18.5037H93.4648C93.2287 17.9011 93.174 17.0228 93.174 15.5418V15.0594C93.174 13.7286 92.7494 13.2391 90.9537 13.2391H88.7879ZM88.7879 10.2666H91.6268C92.8903 10.2666 93.597 9.80364 93.597 8.76981C93.597 7.81728 92.9485 7.27827 91.6268 7.27827H88.7897V10.2666H88.7879Z" fill="white"/>
<path d="M115.476 18.5037H112.286C112.184 18.1979 112.082 17.6907 112.015 17.203C111.1 18.2227 109.895 18.8306 107.273 18.8306C102.563 18.8306 99.9756 15.6602 99.9756 11.4789C99.9756 7.29767 102.552 3.86572 108.168 3.86572C112.7 3.86572 115.079 6.16489 115.488 8.57008H110.84C110.623 7.90914 110.008 6.93009 108.161 6.93009C105.738 6.93009 104.866 8.91645 104.866 11.2386C104.866 13.7675 105.856 15.7026 108.251 15.7026C110.279 15.7026 111.005 14.5451 111.005 13.437V13.2903H108.214V10.1659H115.478V18.5054L115.476 18.5037Z" fill="white"/>
<path d="M122.589 15.8352L121.686 18.5037H117.034L122.432 4.19092H128.478L134.23 18.5037H129.246L128.277 15.8352H122.589ZM127.199 12.5234C126.268 9.94678 125.731 8.31916 125.371 7.12098H125.301C124.991 8.30503 124.358 10.3356 123.6 12.5234H127.199Z" fill="white"/>
<path d="M135.758 18.5037V4.19092H141.163C144.324 9.31765 145.392 11.1768 146.312 13.02H146.387C146.259 11.6734 146.266 9.08614 146.266 6.71805V4.19269H150.442V18.5055H145.335C144.223 16.5173 140.715 10.4239 139.867 8.68145H139.799C139.934 10.3179 139.941 12.2159 139.941 15.024V18.5055H135.758V18.5037Z" fill="white"/>
<path d="M157.628 15.8352L156.725 18.5037H152.073L157.471 4.19092H163.517L169.269 18.5037H164.285L163.316 15.8352H157.628ZM162.238 12.5234C161.307 9.94678 160.77 8.31916 160.41 7.12098H160.34C160.03 8.30503 159.397 10.3356 158.639 12.5234H162.238Z" fill="white"/>
<path d="M67.6428 31.8818C67.6428 29.6109 67.6851 26.8611 67.7873 25.1822H67.745C67.056 27.9515 66.1449 31.6468 64.7211 36.7063H60.9094C59.7869 32.0002 58.8635 28.0469 58.1621 25.154H58.1269C58.215 26.8222 58.3771 29.5844 58.3771 32.0409V36.7063H54.2324V22.3936H60.8742C61.7941 25.617 62.6981 29.1338 63.1034 31.5443H63.1316C63.6779 29.0118 64.5907 25.6682 65.5475 22.3936H72.1664V36.7063H67.6428V31.8818Z" fill="white"/>
<path d="M87.7166 31.0123H80.0915V33.4016H88.617L88.0831 36.7063H75.5186V22.3936H88.1201V25.7053H80.0897V27.7005H87.7148V31.0123H87.7166Z" fill="white"/>
<path d="M90.8369 22.3934H98.0673C103.216 22.3934 105.826 25.5549 105.826 29.3191C105.826 33.7407 102.601 36.7044 98.0214 36.7044H90.8369V22.3916V22.3934ZM95.4803 33.488H97.484C99.7836 33.488 100.931 32.099 100.931 29.4287C100.931 27.2338 100.02 25.6239 97.4892 25.5974H95.4803V33.488Z" fill="white"/>
<path d="M112.99 22.3936V36.7063H108.347V22.3936H112.99Z" fill="white"/>
<path d="M120.175 34.0378L119.272 36.7063H114.62L120.018 22.3936H126.064L131.816 36.7063H126.832L125.863 34.0378H120.175ZM124.785 30.726C123.854 28.1494 123.317 26.5218 122.957 25.3236H122.887C122.576 26.5077 121.944 28.5382 121.186 30.726H124.785Z" fill="white"/>
<path d="M44.191 4.13623H35.1016V36.6532H44.191V4.13623Z" fill="#FF474F"/>
<path d="M31.3512 15.7891H22.2617V24.9044H31.3512V15.7891Z" fill="#FF474F"/>
<path d="M22.262 4.13605V13.2514H15.7965V36.653H6.70703V13.2514C6.70703 12.8025 6.74051 12.3607 6.80219 11.9295C7.44011 7.52029 11.2253 4.13428 15.7965 4.13428H22.262V4.13605Z" fill="#FF474F"/>
</svg>
